<svg height="22" viewBox="0 0 22 22" width="22" xmlns="http://www.w3.org/2000/svg" xmlns:xlink="http://www.w3.org/1999/xlink"><defs><path id="a" d="m0 11c0-6.07513255 4.92486745-11 11-11 6.0751325 0 11 4.92486745 11 11 0 6.0751325-4.9248675 11-11 11-6.07513255 0-11-4.9248675-11-11zm21 0c0-5.52284775-4.4771522-10-10-10-5.52284775 0-10 4.47715225-10 10 0 5.5228478 4.47715225 10 10 10 5.5228478 0 10-4.4771522 10-10zm-10 5.5 4-3v-1l-3.5015625 2.75-.0000001-9.75h-.9984374v9.75l-3.5-2.75v1z"/></defs><g fill="none" fill-rule="evenodd"><use fill="#000" fill-rule="evenodd" xlink:href="#a"/><use fill="none" xlink:href="#a"/></g></svg>